<svg width="50" height="50" viewBox="0 0 50 50" fill="none" xmlns="http://www.w3.org/2000/svg">
<mask id="mask0_145_1197" style="mask-type:alpha" maskUnits="userSpaceOnUse" x="0" y="0" width="50" height="50">
<rect width="50" height="50" fill="#D9D9D9"/>
</mask>
<g mask="url(#mask0_145_1197)">
<path d="M10.4167 43.75C9.27083 43.75 8.28993 43.342 7.47396 42.526C6.65799 41.7101 6.25 40.7292 6.25 39.5833V10.4167C6.25 9.27083 6.65799 8.28993 7.47396 7.47396C8.28993 6.65799 9.27083 6.25 10.4167 6.25H39.5833C40.7292 6.25 41.7101 6.65799 42.526 7.47396C43.342 8.28993 43.75 9.27083 43.75 10.4167V15.625H39.5833V10.4167H10.4167V39.5833H39.5833V34.375H43.75V39.5833C43.75 40.7292 43.342 41.7101 42.526 42.526C41.7101 43.342 40.7292 43.75 39.5833 43.75H10.4167ZM27.0833 35.4167C25.9375 35.4167 24.9566 35.0087 24.1406 34.1927C23.3247 33.3767 22.9167 32.3958 22.9167 31.25V18.75C22.9167 17.6042 23.3247 16.6233 24.1406 15.8073C24.9566 14.9913 25.9375 14.5833 27.0833 14.5833H41.6667C42.8125 14.5833 43.7934 14.9913 44.6094 15.8073C45.4253 16.6233 45.8333 17.6042 45.8333 18.75V31.25C45.8333 32.3958 45.4253 33.3767 44.6094 34.1927C43.7934 35.0087 42.8125 35.4167 41.6667 35.4167H27.0833ZM41.6667 31.25V18.75H27.0833V31.25H41.6667ZM33.3333 28.125C34.2014 28.125 34.9392 27.8212 35.5469 27.2135C36.1545 26.6059 36.4583 25.8681 36.4583 25C36.4583 24.1319 36.1545 23.3941 35.5469 22.7865C34.9392 22.1788 34.2014 21.875 33.3333 21.875C32.4653 21.875 31.7274 22.1788 31.1198 22.7865C30.5122 23.3941 30.2083 24.1319 30.2083 25C30.2083 25.8681 30.5122 26.6059 31.1198 27.2135C31.7274 27.8212 32.4653 28.125 33.3333 28.125Z" fill="white"/>
</g>
</svg>
