<svg width="18" height="18" viewBox="0 0 18 18" fill="none" xmlns="http://www.w3.org/2000/svg">
<mask id="mask0_145_1374" style="mask-type:alpha" maskUnits="userSpaceOnUse" x="0" y="0" width="18" height="18">
<rect x="0.935547" y="0.5" width="17" height="17" fill="#D9D9D9"/>
</mask>
<g mask="url(#mask0_145_1374)">
<path d="M5.82837 16.2948C5.51411 16.2948 5.24571 16.1836 5.02317 15.9612C4.80076 15.7386 4.68955 15.4702 4.68955 15.156V12.8866C4.68955 12.756 4.73329 12.6465 4.82077 12.5583C4.90813 12.4703 5.01662 12.4262 5.14624 12.4262C5.27587 12.4262 5.3856 12.4703 5.47544 12.5583C5.5654 12.6465 5.61038 12.756 5.61038 12.8866V13.426H13.2604V4.57188H5.61038V5.11127C5.61038 5.24196 5.5667 5.3514 5.47934 5.43958C5.39186 5.52765 5.28331 5.57169 5.15368 5.57169C5.02406 5.57169 4.91432 5.52765 4.82448 5.43958C4.73453 5.3514 4.68955 5.24196 4.68955 5.11127V2.84195C4.68955 2.52768 4.80076 2.25929 5.02317 2.03675C5.24571 1.81433 5.51411 1.70312 5.82837 1.70312H13.0424C13.3567 1.70312 13.6251 1.81433 13.8476 2.03675C14.07 2.25929 14.1812 2.52768 14.1812 2.84195V15.156C14.1812 15.4702 14.07 15.7386 13.8476 15.9612C13.6251 16.1836 13.3567 16.2948 13.0424 16.2948H5.82837ZM5.61038 14.3469V15.156C5.61038 15.2105 5.63311 15.2604 5.67856 15.3058C5.72389 15.3512 5.77383 15.374 5.82837 15.374H13.0424C13.0969 15.374 13.1469 15.3512 13.1922 15.3058C13.2377 15.2604 13.2604 15.2105 13.2604 15.156V14.3469H5.61038ZM7.48746 8.20474L3.85867 11.8337C3.76057 11.9317 3.65497 11.9789 3.54187 11.9754C3.42889 11.9717 3.32105 11.9186 3.21834 11.816C3.11575 11.7133 3.06445 11.6036 3.06445 11.487C3.06445 11.3703 3.11575 11.2607 3.21834 11.158L6.8296 7.54688H4.97288C4.84219 7.54688 4.73281 7.50314 4.64474 7.41566C4.55656 7.3283 4.51246 7.2198 4.51246 7.09018C4.51246 6.96055 4.55656 6.85082 4.64474 6.76098C4.73281 6.67102 4.84219 6.62604 4.97288 6.62604H7.83897C8.00142 6.62604 8.13689 6.68035 8.24538 6.78896C8.35399 6.89745 8.4083 7.03292 8.4083 7.19537V10.0615C8.4083 10.1921 8.36456 10.3015 8.27708 10.3896C8.18972 10.4778 8.08122 10.5219 7.9516 10.5219C7.82197 10.5219 7.71224 10.4778 7.6224 10.3896C7.53244 10.3015 7.48746 10.1921 7.48746 10.0615V8.20474ZM5.61038 3.65104H13.2604V2.84195C13.2604 2.78741 13.2377 2.73747 13.1922 2.69214C13.1469 2.64668 13.0969 2.62396 13.0424 2.62396H5.82837C5.77383 2.62396 5.72389 2.64668 5.67856 2.69214C5.63311 2.73747 5.61038 2.78741 5.61038 2.84195V3.65104Z" fill="#F7931E"/>
</g>
</svg>
