<svg width="100" height="100" viewBox="0 0 100 100" fill="none" xmlns="http://www.w3.org/2000/svg">
<path d="M36.7083 8.33398L21.625 23.459" stroke="#D1C5EB" stroke-width="1.5" stroke-miterlimit="10" stroke-linecap="round" stroke-linejoin="round"/>
<path d="M63.291 8.33398L78.3743 23.459" stroke="#D1C5EB" stroke-width="1.5" stroke-miterlimit="10" stroke-linecap="round" stroke-linejoin="round"/>
<path d="M8.33398 32.7083C8.33398 25 12.459 24.375 17.584 24.375H82.4173C87.5423 24.375 91.6673 25 91.6673 32.7083C91.6673 41.6667 87.5423 41.0417 82.4173 41.0417H17.584C12.459 41.0417 8.33398 41.6667 8.33398 32.7083Z" stroke="#D1C5EB" stroke-width="1.5"/>
<path d="M40.666 58.334V73.1257" stroke="#D1C5EB" stroke-width="1.5" stroke-linecap="round"/>
<path d="M59.834 58.334V73.1257" stroke="#D1C5EB" stroke-width="1.5" stroke-linecap="round"/>
<path d="M14.584 41.666L20.459 77.666C21.7923 85.7493 25.0006 91.666 36.9173 91.666H62.0423C75.0006 91.666 76.9173 85.9993 78.4173 78.166L85.4173 41.666" stroke="#D1C5EB" stroke-width="1.5" stroke-linecap="round"/>
</svg>
