<svg width="18" height="18" viewBox="0 0 18 18" fill="none" xmlns="http://www.w3.org/2000/svg">
<mask id="mask0_145_1379" style="mask-type:alpha" maskUnits="userSpaceOnUse" x="0" y="0" width="18" height="18">
<rect x="0.269531" y="0.5" width="17" height="17" fill="#009245"/>
</mask>
<g mask="url(#mask0_145_1379)">
<path d="M8.13125 15.7992V7.29922H1.96875L8.76875 2.19922L15.5688 7.29922H9.40625V15.7992H8.13125ZM2.81875 15.7992V12.8951L2.19896 9.99089L3.43854 9.70755L3.95208 12.1867H6.64375V15.7992H5.36875V13.4617H4.09375V15.7992H2.81875ZM10.8938 15.7992V12.1867H13.5677L14.099 9.70755L15.3385 9.99089L14.7188 12.8951V15.7992H13.4438V13.4617H12.1688V15.7992H10.8938ZM5.79375 6.02422H11.7438L8.76875 3.79297L5.79375 6.02422Z" fill="#009245"/>
</g>
</svg>
