<svg width="25" height="24" viewBox="0 0 25 24" fill="none" xmlns="http://www.w3.org/2000/svg">
<mask id="mask0_145_1389" style="mask-type:alpha" maskUnits="userSpaceOnUse" x="0" y="0" width="25" height="24">
<rect x="0.269531" width="24" height="24" fill="#D9D9D9"/>
</mask>
<g mask="url(#mask0_145_1389)">
<path d="M12.2695 21.0004L10.8195 19.7004C9.1362 18.1837 7.74453 16.8754 6.64453 15.7754C5.54453 14.6754 4.66953 13.6879 4.01953 12.8129C3.36953 11.9379 2.91536 11.1337 2.65703 10.4004C2.3987 9.66706 2.26953 8.91706 2.26953 8.15039C2.26953 6.58372 2.79453 5.27539 3.84453 4.22539C4.89453 3.17539 6.20286 2.65039 7.76953 2.65039C8.6362 2.65039 9.4612 2.83372 10.2445 3.20039C11.0279 3.56706 11.7029 4.08372 12.2695 4.75039C12.8362 4.08372 13.5112 3.56706 14.2945 3.20039C15.0779 2.83372 15.9029 2.65039 16.7695 2.65039C18.3362 2.65039 19.6445 3.17539 20.6945 4.22539C21.7445 5.27539 22.2695 6.58372 22.2695 8.15039C22.2695 8.91706 22.1404 9.66706 21.882 10.4004C21.6237 11.1337 21.1695 11.9379 20.5195 12.8129C19.8695 13.6879 18.9945 14.6754 17.8945 15.7754C16.7945 16.8754 15.4029 18.1837 13.7195 19.7004L12.2695 21.0004ZM12.2695 18.3004C13.8695 16.8671 15.1862 15.6379 16.2195 14.6129C17.2529 13.5879 18.0695 12.6962 18.6695 11.9379C19.2695 11.1796 19.6862 10.5046 19.9195 9.91289C20.1529 9.32122 20.2695 8.73372 20.2695 8.15039C20.2695 7.15039 19.9362 6.31706 19.2695 5.65039C18.6029 4.98372 17.7695 4.65039 16.7695 4.65039C15.9862 4.65039 15.2612 4.87122 14.5945 5.31289C13.9279 5.75456 13.4695 6.31706 13.2195 7.00039H11.3195C11.0695 6.31706 10.6112 5.75456 9.94453 5.31289C9.27786 4.87122 8.55286 4.65039 7.76953 4.65039C6.76953 4.65039 5.9362 4.98372 5.26953 5.65039C4.60286 6.31706 4.26953 7.15039 4.26953 8.15039C4.26953 8.73372 4.3862 9.32122 4.61953 9.91289C4.85286 10.5046 5.26953 11.1796 5.86953 11.9379C6.46953 12.6962 7.2862 13.5879 8.31953 14.6129C9.35286 15.6379 10.6695 16.8671 12.2695 18.3004Z" fill="#1C1B1F"/>
</g>
</svg>
