<svg width="14" height="19" viewBox="0 0 14 19" fill="none" xmlns="http://www.w3.org/2000/svg">
<path d="M6.29688 17.8984C1.16406 10.5156 0.25 9.74219 0.25 7C0.25 3.27344 3.23828 0.25 7 0.25C10.7266 0.25 13.75 3.27344 13.75 7C13.75 9.74219 12.8008 10.5156 7.66797 17.8984C7.35156 18.3906 6.61328 18.3906 6.29688 17.8984ZM7 9.8125C8.54688 9.8125 9.8125 8.58203 9.8125 7C9.8125 5.45312 8.54688 4.1875 7 4.1875C5.41797 4.1875 4.1875 5.45312 4.1875 7C4.1875 8.58203 5.41797 9.8125 7 9.8125Z" fill="#5124A5"/>
</svg>
