<svg width="25" height="24" viewBox="0 0 25 24" fill="none" xmlns="http://www.w3.org/2000/svg">
<path d="M12.2695 7C12.6651 7 13.0518 6.8827 13.3807 6.66294C13.7096 6.44318 13.9659 6.13082 14.1173 5.76537C14.2687 5.39992 14.3083 4.99778 14.2311 4.60982C14.1539 4.22186 13.9635 3.86549 13.6837 3.58579C13.404 3.30608 13.0477 3.1156 12.6597 3.03843C12.2718 2.96126 11.8696 3.00087 11.5042 3.15224C11.1387 3.30362 10.8264 3.55996 10.6066 3.88886C10.3868 4.21776 10.2695 4.60444 10.2695 5C10.2695 5.53043 10.4802 6.03914 10.8553 6.41421C11.2304 6.78929 11.7391 7 12.2695 7ZM12.2695 17C11.874 17 11.4873 17.1173 11.1584 17.3371C10.8295 17.5568 10.5731 17.8692 10.4218 18.2346C10.2704 18.6001 10.2308 19.0022 10.308 19.3902C10.3851 19.7781 10.5756 20.1345 10.8553 20.4142C11.135 20.6939 11.4914 20.8844 11.8794 20.9616C12.2673 21.0387 12.6694 20.9991 13.0349 20.8478C13.4004 20.6964 13.7127 20.44 13.9325 20.1111C14.1522 19.7822 14.2695 19.3956 14.2695 19C14.2695 18.4696 14.0588 17.9609 13.6837 17.5858C13.3087 17.2107 12.8 17 12.2695 17ZM12.2695 10C11.874 10 11.4873 10.1173 11.1584 10.3371C10.8295 10.5568 10.5731 10.8692 10.4218 11.2346C10.2704 11.6001 10.2308 12.0022 10.308 12.3902C10.3851 12.7781 10.5756 13.1345 10.8553 13.4142C11.135 13.6939 11.4914 13.8844 11.8794 13.9616C12.2673 14.0387 12.6694 13.9991 13.0349 13.8478C13.4004 13.6964 13.7127 13.44 13.9325 13.1111C14.1522 12.7822 14.2695 12.3956 14.2695 12C14.2695 11.4696 14.0588 10.9609 13.6837 10.5858C13.3087 10.2107 12.8 10 12.2695 10Z" fill="#5124A5"/>
</svg>
