<svg width="20" height="20" viewBox="0 0 20 20" fill="none" xmlns="http://www.w3.org/2000/svg">
<mask id="mask0_251_1113" style="mask-type:alpha" maskUnits="userSpaceOnUse" x="0" y="0" width="20" height="20">
<rect width="20" height="20" fill="#D9D9D9"/>
</mask>
<g mask="url(#mask0_251_1113)">
<path d="M14.7115 16.3773C13.9308 16.3773 13.2708 16.1078 12.7317 15.5688C12.1926 15.0296 11.9231 14.3697 11.9231 13.589C11.9231 12.8082 12.1926 12.1482 12.7317 11.6092C13.2708 11.0701 13.9308 10.8005 14.7115 10.8005C15.4923 10.8005 16.1522 11.0701 16.6913 11.6092C17.2304 12.1482 17.5 12.8082 17.5 13.589C17.5 14.3697 17.2304 15.0296 16.6913 15.5688C16.1522 16.1078 15.4923 16.3773 14.7115 16.3773ZM14.7106 15.1273C15.1353 15.1273 15.4981 14.9773 15.799 14.6771C16.0997 14.3769 16.25 14.0144 16.25 13.5898C16.25 13.1651 16.0999 12.8023 15.7996 12.5015C15.4994 12.2008 15.137 12.0505 14.7123 12.0505C14.2876 12.0505 13.9249 12.2006 13.6242 12.5009C13.3235 12.801 13.1731 13.1635 13.1731 13.5882C13.1731 14.0129 13.3232 14.3756 13.6233 14.6763C13.9236 14.977 14.286 15.1273 14.7106 15.1273ZM9.47125 14.214H4.375C4.19792 14.214 4.04951 14.1541 3.92979 14.0342C3.80993 13.9144 3.75 13.7658 3.75 13.5886C3.75 13.4115 3.80993 13.2631 3.92979 13.1434C4.04951 13.0238 4.19792 12.964 4.375 12.964H9.47125C9.64833 12.964 9.79674 13.0239 9.91646 13.1438C10.0363 13.2637 10.0963 13.4121 10.0963 13.5892C10.0963 13.7664 10.0363 13.9148 9.91646 14.0344C9.79674 14.1542 9.64833 14.214 9.47125 14.214ZM5.28854 9.19797C4.50771 9.19797 3.84778 8.92839 3.30875 8.38922C2.76958 7.85019 2.5 7.19026 2.5 6.40943C2.5 5.62873 2.76958 4.9688 3.30875 4.42964C3.84778 3.89061 4.50771 3.62109 5.28854 3.62109C6.06924 3.62109 6.72917 3.89061 7.26833 4.42964C7.80736 4.9688 8.07688 5.62873 8.07688 6.40943C8.07688 7.19026 7.80736 7.85019 7.26833 8.38922C6.72917 8.92839 6.06924 9.19797 5.28854 9.19797ZM5.28771 7.94797C5.71243 7.94797 6.07514 7.79783 6.37583 7.49755C6.67653 7.19741 6.82688 6.83498 6.82688 6.41026C6.82688 5.98554 6.67681 5.62283 6.37667 5.32214C6.07639 5.02144 5.71396 4.87109 5.28937 4.87109C4.86465 4.87109 4.50187 5.02116 4.20104 5.3213C3.90035 5.62158 3.75 5.98401 3.75 6.40859C3.75 6.83332 3.90014 7.19609 4.20042 7.49693C4.50056 7.79762 4.86299 7.94797 5.28771 7.94797ZM15.625 7.03443H10.5288C10.3517 7.03443 10.2033 6.9745 10.0835 6.85464C9.96368 6.73478 9.90375 6.5863 9.90375 6.40922C9.90375 6.232 9.96368 6.08359 10.0835 5.96401C10.2033 5.84429 10.3517 5.78443 10.5288 5.78443H15.625C15.8021 5.78443 15.9505 5.84436 16.0702 5.96422C16.1901 6.08408 16.25 6.23262 16.25 6.40984C16.25 6.58693 16.1901 6.73533 16.0702 6.85505C15.9505 6.97464 15.8021 7.03443 15.625 7.03443Z" fill="white"/>
</g>
</svg>
