<svg width="16" height="16" viewBox="0 0 16 16" fill="none" xmlns="http://www.w3.org/2000/svg">
<path d="M14.2329 7.55799L9.23289 2.55799C9.14548 2.47061 9.03413 2.41111 8.91291 2.387C8.79169 2.3629 8.66604 2.37527 8.55186 2.42257C8.43767 2.46986 8.34007 2.54995 8.27139 2.65271C8.20271 2.75546 8.16604 2.87627 8.16602 2.99987V5.21549C6.4587 5.37349 4.87178 6.1629 3.71582 7.42926C2.55986 8.69561 1.91806 10.3478 1.91602 12.0624V12.9999C1.91611 13.1296 1.95658 13.2561 2.03181 13.3618C2.10704 13.4675 2.2133 13.5472 2.33584 13.5898C2.45839 13.6323 2.59116 13.6357 2.71572 13.5995C2.84029 13.5632 2.95048 13.4891 3.03102 13.3874C3.64333 12.6592 4.39461 12.0604 5.24098 11.6259C6.08735 11.1914 7.01182 10.9299 7.96039 10.8567C7.99164 10.853 8.06977 10.8467 8.16602 10.8405V12.9999C8.16604 13.1235 8.20271 13.2443 8.27139 13.347C8.34007 13.4498 8.43767 13.5299 8.55186 13.5772C8.66604 13.6245 8.79169 13.6368 8.91291 13.6127C9.03413 13.5886 9.14548 13.5291 9.23289 13.4417L14.2329 8.44174C14.3501 8.32454 14.4159 8.16559 14.4159 7.99987C14.4159 7.83414 14.3501 7.6752 14.2329 7.55799ZM9.41602 11.4911V10.1874C9.41602 10.0216 9.35017 9.86264 9.23296 9.74543C9.11575 9.62822 8.95678 9.56237 8.79102 9.56237C8.63164 9.56237 7.98102 9.59362 7.81477 9.61549C6.1303 9.7707 4.5269 10.4107 3.19852 11.458C3.34929 10.0795 4.00323 8.80508 5.03511 7.87872C6.067 6.95235 7.40432 6.43915 8.79102 6.43737C8.95678 6.43737 9.11575 6.37152 9.23296 6.25431C9.35017 6.1371 9.41602 5.97813 9.41602 5.81237V4.50862L12.9073 7.99987L9.41602 11.4911Z" fill="#5124A5"/>
</svg>
