<svg width="25" height="24" viewBox="0 0 25 24" fill="none" xmlns="http://www.w3.org/2000/svg">
<mask id="mask0_251_1098" style="mask-type:alpha" maskUnits="userSpaceOnUse" x="0" y="0" width="25" height="24">
<rect x="0.269531" width="24" height="24" fill="#D9D9D9"/>
</mask>
<g mask="url(#mask0_251_1098)">
<path d="M12.2695 10L10.8695 8.6L12.4445 7H8.26953V5H12.4445L10.8445 3.4L12.2695 2L16.2695 6L12.2695 10ZM7.26953 22C6.71953 22 6.2487 21.8042 5.85703 21.4125C5.46536 21.0208 5.26953 20.55 5.26953 20C5.26953 19.45 5.46536 18.9792 5.85703 18.5875C6.2487 18.1958 6.71953 18 7.26953 18C7.81953 18 8.29036 18.1958 8.68203 18.5875C9.0737 18.9792 9.26953 19.45 9.26953 20C9.26953 20.55 9.0737 21.0208 8.68203 21.4125C8.29036 21.8042 7.81953 22 7.26953 22ZM17.2695 22C16.7195 22 16.2487 21.8042 15.857 21.4125C15.4654 21.0208 15.2695 20.55 15.2695 20C15.2695 19.45 15.4654 18.9792 15.857 18.5875C16.2487 18.1958 16.7195 18 17.2695 18C17.8195 18 18.2904 18.1958 18.682 18.5875C19.0737 18.9792 19.2695 19.45 19.2695 20C19.2695 20.55 19.0737 21.0208 18.682 21.4125C18.2904 21.8042 17.8195 22 17.2695 22ZM1.26953 4V2H4.54453L8.79453 11H15.7945L19.6945 4H21.9695L17.5695 11.95C17.3862 12.2833 17.1404 12.5417 16.832 12.725C16.5237 12.9083 16.1862 13 15.8195 13H8.36953L7.26953 15H19.2695V17H7.26953C6.51953 17 5.9487 16.675 5.55703 16.025C5.16536 15.375 5.15286 14.7167 5.51953 14.05L6.86953 11.6L3.26953 4H1.26953Z" fill="#5124A5"/>
</g>
</svg>
