<svg width="16" height="19" viewBox="0 0 16 19" fill="none" xmlns="http://www.w3.org/2000/svg">
<path d="M8 9.25C5.50391 9.25 3.5 7.24609 3.5 4.75C3.5 2.28906 5.50391 0.25 8 0.25C10.4609 0.25 12.5 2.28906 12.5 4.75C12.5 7.24609 10.4609 9.25 8 9.25ZM11.1289 10.375C13.7305 10.375 15.875 12.5195 15.875 15.1211V16.5625C15.875 17.5117 15.1016 18.25 14.1875 18.25H1.8125C0.863281 18.25 0.125 17.5117 0.125 16.5625V15.1211C0.125 12.5195 2.23438 10.375 4.83594 10.375H5.43359C6.20703 10.7617 7.08594 10.9375 8 10.9375C8.91406 10.9375 9.75781 10.7617 10.5312 10.375H11.1289Z" fill="#3B1B7F"/>
</svg>
