<svg width="100" height="100" viewBox="0 0 100 100" fill="none" xmlns="http://www.w3.org/2000/svg">
<path d="M91.6673 49.9993V70.8327C91.6673 83.3327 83.334 91.666 70.834 91.666H29.1673C16.6673 91.666 8.33398 83.3327 8.33398 70.8327V49.9993C8.33398 38.666 15.1673 30.7493 25.7923 29.416C26.8757 29.2493 28.0007 29.166 29.1673 29.166H70.834C71.9173 29.166 72.959 29.2076 73.959 29.3743C84.709 30.6243 91.6673 38.5827 91.6673 49.9993Z" stroke="#D1C5EB" stroke-width="1.5" stroke-linecap="round" stroke-linejoin="round"/>
<path d="M73.9635 29.3756C72.9635 29.209 71.9219 29.1674 70.8385 29.1674H29.1719C28.0052 29.1674 26.8802 29.2507 25.7969 29.4174C26.3802 28.2507 27.2135 27.1674 28.2135 26.1674L41.7552 12.584C47.4635 6.91732 56.7135 6.91732 62.4219 12.584L69.7135 19.9591C72.3802 22.5841 73.7969 25.9173 73.9635 29.3756Z" stroke="#D1C5EB" stroke-width="1.5" stroke-linecap="round" stroke-linejoin="round"/>
<path d="M91.6673 52.084H79.1673C74.584 52.084 70.834 55.834 70.834 60.4173C70.834 65.0007 74.584 68.7507 79.1673 68.7507H91.6673" stroke="#D1C5EB" stroke-width="1.5" stroke-linecap="round" stroke-linejoin="round"/>
</svg>
